<svg xmlns="http://www.w3.org/2000/svg" width="35.962" height="78.333" viewBox="0 0 35.962 78.333">
  <g id="burj-al-arab_2_" data-name="burj-al-arab (2)" transform="translate(-20.932 -2)">
    <path id="Path_7920" data-name="Path 7920" d="M55.775,72.85H22.051a1.119,1.119,0,0,1-1.119-1.119V65.975a1.119,1.119,0,0,1,1.119-1.119H55.775a1.119,1.119,0,0,1,1.119,1.119v5.756A1.119,1.119,0,0,1,55.775,72.85Zm-32.6-2.238H54.656V67.094H23.17Z" transform="translate(0 7.483)" fill="#fff"/>
    <path id="Path_7921" data-name="Path 7921" d="M48.071,34.99a1.119,1.119,0,0,1-1.047-.726c-.388-1.032-.8-2.021-1.214-2.942a1.119,1.119,0,0,1,2.039-.924c.438.965.865,2,1.27,3.079a1.122,1.122,0,0,1-1.047,1.514Z" transform="translate(2.95 3.302)" fill="#fff"/>
    <path id="Path_7922" data-name="Path 7922" d="M48.63,68.934a1.119,1.119,0,0,1-1.088-1.389,74.416,74.416,0,0,0,2.306-17A1.1,1.1,0,0,1,50.98,49.44a1.119,1.119,0,0,1,1.107,1.131,76.71,76.71,0,0,1-2.372,17.512,1.119,1.119,0,0,1-1.084.85Z" transform="translate(3.164 5.648)" fill="#fff"/>
    <path id="Path_7923" data-name="Path 7923" d="M50.364,44.763a1.119,1.119,0,0,1-1.109-.988c-.132-1.125-.308-2.213-.521-3.237a1.119,1.119,0,1,1,2.191-.457c.224,1.088.413,2.238.553,3.432a1.119,1.119,0,0,1-.98,1.242A1.066,1.066,0,0,1,50.364,44.763Z" transform="translate(3.307 4.427)" fill="#fff"/>
    <path id="Path_7924" data-name="Path 7924" d="M45.431,27.528a1.119,1.119,0,0,1-.921-.482A45.74,45.74,0,0,0,25.159,11.188a1.119,1.119,0,0,1,.773-2.1A47.112,47.112,0,0,1,46.351,25.772a1.119,1.119,0,0,1-.92,1.756Z" transform="translate(0.419 0.837)" fill="#fff"/>
    <path id="Path_7925" data-name="Path 7925" d="M25.546,74.577a1.119,1.119,0,0,1-1.119-1.119V3.119a1.119,1.119,0,1,1,2.238,0V73.458A1.119,1.119,0,0,1,25.546,74.577Z" transform="translate(0.416 0)" fill="#fff"/>
    <path id="Path_7926" data-name="Path 7926" d="M44.446,71.929a1.119,1.119,0,0,1-1.062-1.474A48.343,48.343,0,0,0,37.2,26.49H32.419V70.8a1.119,1.119,0,0,1-2.238,0V25.371A1.119,1.119,0,0,1,31.3,24.252h6.439a1.119,1.119,0,0,1,.854.4c.16.19,15.983,19.307,6.915,46.515a1.119,1.119,0,0,1-1.062.765Z" transform="translate(1.101 2.649)" fill="#fff"/>
    <path id="Path_7927" data-name="Path 7927" d="M41.969,32.509H31.292a1.119,1.119,0,0,1,0-2.238H41.969a1.119,1.119,0,0,1,0,2.238Z" transform="translate(1.1 3.366)" fill="#fff"/>
    <path id="Path_7928" data-name="Path 7928" d="M44.639,38.262H31.292a1.119,1.119,0,0,1,0-2.238H44.639a1.119,1.119,0,1,1,0,2.238Z" transform="translate(1.1 4.05)" fill="#fff"/>
    <path id="Path_7929" data-name="Path 7929" d="M46.347,44H31.292a1.119,1.119,0,0,1,0-2.238H46.347a1.119,1.119,0,1,1,0,2.238Z" transform="translate(1.1 4.733)" fill="#fff"/>
    <path id="Path_7930" data-name="Path 7930" d="M47.12,49.749H31.292a1.119,1.119,0,0,1,0-2.238H47.12a1.119,1.119,0,1,1,0,2.238Z" transform="translate(1.1 5.418)" fill="#fff"/>
    <path id="Path_7931" data-name="Path 7931" d="M47.073,55.5H31.294a1.119,1.119,0,1,1,0-2.238H47.073a1.119,1.119,0,0,1,0,2.238Z" transform="translate(1.1 6.103)" fill="#fff"/>
    <path id="Path_7932" data-name="Path 7932" d="M46.206,61.257H31.292a1.119,1.119,0,1,1,0-2.238H46.206a1.119,1.119,0,1,1,0,2.238Z" transform="translate(1.1 6.788)" fill="#fff"/>
    <path id="Path_7933" data-name="Path 7933" d="M44.639,38.262H31.292a1.119,1.119,0,0,1,0-2.238H44.639a1.119,1.119,0,1,1,0,2.238Z" transform="translate(1.1 4.05)" fill="#fff"/>
  </g>
</svg>
