<svg xmlns="http://www.w3.org/2000/svg" xmlns:xlink="http://www.w3.org/1999/xlink" width="33" height="33" viewBox="0 0 33 33">
  <defs>
    <linearGradient id="linear-gradient" x1="0.5" x2="1.308" y2="1.651" gradientUnits="objectBoundingBox">
      <stop offset="0" stop-color="#ffae00"/>
      <stop offset="1" stop-color="#f9e866"/>
    </linearGradient>
  </defs>
  <g id="instagram" transform="translate(-315 -4095)">
    <rect id="Rectangle_577" data-name="Rectangle 577" width="33" height="33" rx="5" transform="translate(315 4095)" fill="url(#linear-gradient)"/>
    <g id="instagram_3_" data-name="instagram (3)" transform="translate(322.935 4102.892)">
      <path id="Path_296" data-name="Path 296" d="M17.619,5.062a6.291,6.291,0,0,0-.4-2.089A4.41,4.41,0,0,0,14.7.454a6.307,6.307,0,0,0-2.089-.4C11.689.01,11.4,0,9.059,0S6.429.01,5.511.05a6.293,6.293,0,0,0-2.089.4,4.2,4.2,0,0,0-1.527,1A4.239,4.239,0,0,0,.9,2.97,6.308,6.308,0,0,0,.5,5.059C.459,5.98.449,6.273.449,8.61s.01,2.63.05,3.548a6.291,6.291,0,0,0,.4,2.089,4.41,4.41,0,0,0,2.519,2.519,6.308,6.308,0,0,0,2.089.4c.918.04,1.211.05,3.548.05s2.63-.01,3.548-.05a6.29,6.29,0,0,0,2.089-.4,4.4,4.4,0,0,0,2.519-2.519,6.312,6.312,0,0,0,.4-2.089c.04-.918.05-1.211.05-3.548s0-2.63-.044-3.548Zm-1.55,7.03a4.719,4.719,0,0,1-.3,1.6,2.856,2.856,0,0,1-1.635,1.635,4.736,4.736,0,0,1-1.6.3c-.908.04-1.18.05-3.478.05s-2.573-.01-3.478-.05a4.717,4.717,0,0,1-1.6-.3A2.649,2.649,0,0,1,3,14.681a2.677,2.677,0,0,1-.642-.989,4.737,4.737,0,0,1-.3-1.6c-.04-.908-.05-1.181-.05-3.478s.01-2.573.05-3.478a4.717,4.717,0,0,1,.3-1.6A2.617,2.617,0,0,1,3,2.553a2.673,2.673,0,0,1,.989-.642,4.739,4.739,0,0,1,1.6-.3c.908-.04,1.181-.05,3.478-.05s2.573.01,3.478.05a4.719,4.719,0,0,1,1.6.3,2.647,2.647,0,0,1,.989.642,2.676,2.676,0,0,1,.642.989,4.738,4.738,0,0,1,.3,1.6c.04.908.05,1.18.05,3.478s-.01,2.566-.05,3.474Zm0,0" transform="translate(-0.449 0)" fill="#272727"/>
      <path id="Path_297" data-name="Path 297" d="M129.372,124.5a4.423,4.423,0,1,0,4.423,4.423A4.424,4.424,0,0,0,129.372,124.5Zm0,7.292a2.869,2.869,0,1,1,2.869-2.869A2.87,2.87,0,0,1,129.372,131.792Zm0,0" transform="translate(-120.762 -120.313)" fill="#272727"/>
      <path id="Path_298" data-name="Path 298" d="M364.515,89.634a1.033,1.033,0,1,1-1.033-1.033A1.033,1.033,0,0,1,364.515,89.634Zm0,0" transform="translate(-350.274 -85.622)" fill="#272727"/>
    </g>
  </g>
</svg>
