<svg xmlns="http://www.w3.org/2000/svg" width="24.175" height="24.222" viewBox="0 0 24.175 24.222">
  <g id="phone-call" transform="translate(-0.01 0.645)">
    <g id="Group_1211" data-name="Group 1211" transform="translate(0.539 0)">
      <path id="Path_1854" data-name="Path 1854" d="M22.936,16.915,19.72,13.7a2.139,2.139,0,0,0-3.561.8,2.189,2.189,0,0,1-2.527,1.378c-2.3-.574-5.4-3.561-5.973-5.973A2.082,2.082,0,0,1,9.036,7.381a2.139,2.139,0,0,0,.8-3.561L6.624.6a2.294,2.294,0,0,0-3.1,0L1.34,2.786c-2.183,2.3.23,8.386,5.629,13.785S18.456,24.5,20.753,22.2l2.183-2.183A2.294,2.294,0,0,0,22.936,16.915Z" transform="translate(-0.539 0)" fill="none" stroke="#fff" stroke-width="1"/>
    </g>
  </g>
</svg>
